<svg xmlns="http://www.w3.org/2000/svg" xmlns:xlink="http://www.w3.org/1999/xlink" width="608" height="301" viewBox="0 0 608 301"><defs><filter id="a" x="8" y="57" width="484.36" height="68.968" filterUnits="userSpaceOnUse"><feOffset dx="1" dy="1" input="SourceAlpha"/><feGaussianBlur result="b"/><feFlood flood-color="#505050" flood-opacity="0.902"/><feComposite operator="in" in2="b"/><feComposite in="SourceGraphic"/></filter><filter id="c" x="8" y="141" width="592.648" height="68.776" filterUnits="userSpaceOnUse"><feOffset dx="1" dy="1" input="SourceAlpha"/><feGaussianBlur result="d"/><feFlood flood-color="#505050" flood-opacity="0.902"/><feComposite operator="in" in2="d"/><feComposite in="SourceGraphic"/></filter><filter id="e" x="8" y="225" width="227.944" height="68.968" filterUnits="userSpaceOnUse"><feOffset dx="1" dy="1" input="SourceAlpha"/><feGaussianBlur result="f"/><feFlood flood-color="#505050" flood-opacity="0.902"/><feComposite operator="in" in2="f"/><feComposite in="SourceGraphic"/></filter><filter id="g" x="8" y="8" width="168.904" height="33.928" filterUnits="userSpaceOnUse"><feOffset dx="1" dy="1" input="SourceAlpha"/><feGaussianBlur result="h"/><feFlood flood-color="#505050" flood-opacity="0.902"/><feComposite operator="in" in2="h"/><feComposite in="SourceGraphic"/></filter><filter id="i" x="192" y="5" width="208.312" height="37.288" filterUnits="userSpaceOnUse"><feOffset dx="1" dy="1" input="SourceAlpha"/><feGaussianBlur result="j"/><feFlood flood-color="#505050" flood-opacity="0.902"/><feComposite operator="in" in2="j"/><feComposite in="SourceGraphic"/></filter></defs><g transform="translate(-174 -736)"><g transform="translate(0 20)"><rect width="499" height="84" transform="translate(174 765)" fill="#394689"/><g transform="matrix(1, 0, 0, 1, 174, 716)" filter="url(#a)"><path d="M45.216-38.4H25.152V-51.456h26.5L50.016-65.184H7.68V0H25.152V-24.672h21.7ZM82.752-51.552a12.446,12.446,0,0,1,5.04.912,6.925,6.925,0,0,1,3.216,2.832,9.192,9.192,0,0,1,1.152,4.8,8.653,8.653,0,0,1-1.2,4.512,8.272,8.272,0,0,1-3.264,3.12,9.921,9.921,0,0,1-4.752,1.1h-9.6v-17.28ZM55.872-65.28V0H73.344V-20.544H84.96L95.52,0h20.256l-14.4-25.728a20.706,20.706,0,0,0,6.384-7.008,20.5,20.5,0,0,0,2.448-10.272q0-7.872-3.7-12.768a21.477,21.477,0,0,0-9.792-7.2,37.6,37.6,0,0,0-13.392-2.3ZM147.936,1.344a34.464,34.464,0,0,1-17.952-4.512A30.736,30.736,0,0,1,118.32-15.36a35.647,35.647,0,0,1-4.08-16.992,35.879,35.879,0,0,1,4.32-17.808,31.237,31.237,0,0,1,11.952-12.1,34.448,34.448,0,0,1,17.424-4.368q10.656,0,18.192,4.512a30.666,30.666,0,0,1,11.568,12.1,35.626,35.626,0,0,1,4.032,16.992,36.476,36.476,0,0,1-4.272,17.856,30.815,30.815,0,0,1-11.9,12.144A34.835,34.835,0,0,1,147.936,1.344Zm-.1-14.592a15.2,15.2,0,0,0,8.112-2.208,15.189,15.189,0,0,0,5.712-6.624,25.279,25.279,0,0,0,2.112-10.944,24.058,24.058,0,0,0-1.872-9.744,15.968,15.968,0,0,0-5.376-6.768,14.1,14.1,0,0,0-8.4-2.5,14.008,14.008,0,0,0-7.968,2.448,17.147,17.147,0,0,0-5.808,6.816,23.036,23.036,0,0,0-2.16,10.32,24.75,24.75,0,0,0,1.872,9.84,15.877,15.877,0,0,0,5.376,6.864A14.1,14.1,0,0,0,147.84-13.248ZM204.384,0V-34.368l4.9,6.72L229.44,0h16.32V-65.28H228.288l.288,35.424-4.992-6.624-20.448-28.8H186.912V0ZM304.9-65.28H249.024v13.728h19.2V0H285.7V-51.552h20.832ZM357.6,0l-1.632-13.728h-28.7V-25.92h21.7l-1.632-13.728H327.264v-11.9H354.72L353.088-65.28h-43.3V0Zm21.7,0V-34.368l4.9,6.72L404.352,0h16.32V-65.28H403.2l.288,35.424L398.5-36.48l-20.448-28.8H361.824V0ZM459.84,0a31.952,31.952,0,0,0,16.224-4.032,28.432,28.432,0,0,0,10.992-11.424,36.52,36.52,0,0,0,3.984-17.568,37.587,37.587,0,0,0-3.5-16.56,27.012,27.012,0,0,0-10.368-11.472Q470.3-65.28,460.224-65.28H430.656V0Zm-.48-51.552a11.594,11.594,0,0,1,7.44,2.4,14.917,14.917,0,0,1,4.608,6.576,26.809,26.809,0,0,1,1.584,9.552,26.5,26.5,0,0,1-1.92,10.752,14.427,14.427,0,0,1-5.136,6.432,12.912,12.912,0,0,1-7.248,2.112h-10.56V-51.552Z" transform="translate(0.32 123.62)" fill="#fbfffe"/></g></g><g transform="translate(-28 -15)"><rect width="608" height="84" transform="translate(202 884)" fill="#5d5827"/><g transform="matrix(1, 0, 0, 1, 202, 751)" filter="url(#c)"><path d="M55.488,0,53.856-13.728h-28.7V-25.92h21.7L45.216-39.648H25.152v-11.9H52.608L50.976-65.28H7.68V0Zm21.7,0V-34.368l4.9,6.72L102.24,0h16.32V-65.28H101.088l.288,35.424L96.384-36.48,75.936-65.28H59.712V0Zm76.8-24.864h11.232v11.232q-1.632.288-3.216.432t-2.928.144a18.31,18.31,0,0,1-8.016-1.92,15.907,15.907,0,0,1-6.624-6.192q-2.64-4.272-2.64-11.28a21.711,21.711,0,0,1,1.632-8.736,18.608,18.608,0,0,1,4.224-6.192,17.354,17.354,0,0,1,5.712-3.648,16.689,16.689,0,0,1,6-1.2,43.541,43.541,0,0,1,4.512.24,49.55,49.55,0,0,1,5.04.816,47.061,47.061,0,0,1,6.192,1.824l5.184-11.808a23.59,23.59,0,0,0-6.24-2.928,51.59,51.59,0,0,0-7.68-1.824,46.286,46.286,0,0,0-7.2-.624,40.117,40.117,0,0,0-13.632,2.3,33.683,33.683,0,0,0-11.328,6.72,31.146,31.146,0,0,0-7.68,10.752,35.461,35.461,0,0,0-2.784,14.4q0,10.656,4.272,18.144A28.427,28.427,0,0,0,140.16-2.736a40.32,40.32,0,0,0,18.432,3.984,56.7,56.7,0,0,0,7.584-.576A69.755,69.755,0,0,0,174.432-.96a24.286,24.286,0,0,0,6.528-2.592v-34.08H155.52ZM204.576,0V-65.28H187.1V0Zm27.456,0V-34.368l4.9,6.72L257.088,0h16.32V-65.28H255.936l.288,35.424-4.992-6.624-20.448-28.8H214.56V0ZM331.2,0l-1.632-13.728h-28.7V-25.92h21.7l-1.632-13.728H300.864v-11.9H328.32L326.688-65.28h-43.3V0Zm52.032,0L381.6-13.728H352.9V-25.92h21.7L372.96-39.648H352.9v-11.9h27.456L378.72-65.28h-43.3V0Zm31.1-51.552a12.446,12.446,0,0,1,5.04.912,6.925,6.925,0,0,1,3.216,2.832,9.192,9.192,0,0,1,1.152,4.8,8.653,8.653,0,0,1-1.2,4.512,8.272,8.272,0,0,1-3.264,3.12,9.921,9.921,0,0,1-4.752,1.1h-9.6v-17.28ZM387.456-65.28V0h17.472V-20.544h11.616L427.1,0H447.36l-14.4-25.728a20.706,20.706,0,0,0,6.384-7.008,20.5,20.5,0,0,0,2.448-10.272q0-7.872-3.7-12.768a21.477,21.477,0,0,0-9.792-7.2,37.6,37.6,0,0,0-13.392-2.3ZM468.1,0V-65.28H450.624V0Zm27.456,0V-34.368l4.9,6.72L520.608,0h16.32V-65.28H519.456l.288,35.424-4.992-6.624L494.3-65.28H478.08V0Zm76.8-24.864h11.232v11.232q-1.632.288-3.216.432t-2.928.144a18.31,18.31,0,0,1-8.016-1.92,15.907,15.907,0,0,1-6.624-6.192q-2.64-4.272-2.64-11.28a21.711,21.711,0,0,1,1.632-8.736,18.609,18.609,0,0,1,4.224-6.192,17.353,17.353,0,0,1,5.712-3.648,16.689,16.689,0,0,1,6-1.2,43.542,43.542,0,0,1,4.512.24,49.552,49.552,0,0,1,5.04.816,47.062,47.062,0,0,1,6.192,1.824l5.184-11.808a23.59,23.59,0,0,0-6.24-2.928,51.592,51.592,0,0,0-7.68-1.824,46.287,46.287,0,0,0-7.2-.624,40.118,40.118,0,0,0-13.632,2.3,33.682,33.682,0,0,0-11.328,6.72,31.146,31.146,0,0,0-7.68,10.752,35.461,35.461,0,0,0-2.784,14.4q0,10.656,4.272,18.144A28.428,28.428,0,0,0,558.528-2.736,40.32,40.32,0,0,0,576.96,1.248a56.7,56.7,0,0,0,7.584-.576A69.754,69.754,0,0,0,592.8-.96a24.287,24.287,0,0,0,6.528-2.592v-34.08h-25.44Z" transform="translate(0.32 207.53)" fill="#fbfffe"/></g></g><g transform="translate(0 20)"><rect width="243" height="84" transform="translate(174 933)" fill="#89396e"/><g transform="matrix(1, 0, 0, 1, 174, 716)" filter="url(#e)"><path d="M32.352,0A53.525,53.525,0,0,0,42.576-.96a29.52,29.52,0,0,0,8.88-3.168,16.768,16.768,0,0,0,6.24-6,17.725,17.725,0,0,0,2.3-9.36,15.8,15.8,0,0,0-2.448-8.592,22.78,22.78,0,0,0-6.288-6.576,33.232,33.232,0,0,0,4.128-5.088,11.83,11.83,0,0,0,1.92-6.72q0-6.72-3.744-10.848a21.79,21.79,0,0,0-9.84-6.048,44.061,44.061,0,0,0-13.3-1.92H7.68V0Zm-2.5-51.552a16.427,16.427,0,0,1,5.04.672,7.151,7.151,0,0,1,3.216,1.968A4.8,4.8,0,0,1,39.264-45.6a3.417,3.417,0,0,1-1.44,2.832,10.135,10.135,0,0,1-3.744,1.68,20.546,20.546,0,0,1-4.992.576H25.152v-11.04Zm2.688,24.768a11.518,11.518,0,0,1,6.912,1.824,5.943,5.943,0,0,1,2.5,5.088,5.038,5.038,0,0,1-1.2,3.408A7.087,7.087,0,0,1,37.488-14.4a15.348,15.348,0,0,1-4.752.672H25.152V-26.784Zm76.9,13.056H81.7V-65.28H64.224V0h46.848ZM143.232,1.344A34.464,34.464,0,0,1,125.28-3.168,30.736,30.736,0,0,1,113.616-15.36a35.647,35.647,0,0,1-4.08-16.992,35.879,35.879,0,0,1,4.32-17.808,31.237,31.237,0,0,1,11.952-12.1,34.448,34.448,0,0,1,17.424-4.368q10.656,0,18.192,4.512a30.666,30.666,0,0,1,11.568,12.1,35.626,35.626,0,0,1,4.032,16.992,36.477,36.477,0,0,1-4.272,17.856,30.815,30.815,0,0,1-11.9,12.144A34.835,34.835,0,0,1,143.232,1.344Zm-.1-14.592a15.2,15.2,0,0,0,8.112-2.208,15.189,15.189,0,0,0,5.712-6.624,25.279,25.279,0,0,0,2.112-10.944,24.058,24.058,0,0,0-1.872-9.744,15.969,15.969,0,0,0-5.376-6.768,14.1,14.1,0,0,0-8.4-2.5,14.008,14.008,0,0,0-7.968,2.448,17.147,17.147,0,0,0-5.808,6.816,23.036,23.036,0,0,0-2.16,10.32,24.75,24.75,0,0,0,1.872,9.84,15.877,15.877,0,0,0,5.376,6.864A14.1,14.1,0,0,0,143.136-13.248Zm64.512-11.616H218.88v11.232q-1.632.288-3.216.432t-2.928.144a18.31,18.31,0,0,1-8.016-1.92,15.907,15.907,0,0,1-6.624-6.192q-2.64-4.272-2.64-11.28a21.711,21.711,0,0,1,1.632-8.736,18.608,18.608,0,0,1,4.224-6.192,17.354,17.354,0,0,1,5.712-3.648,16.689,16.689,0,0,1,6-1.2,43.541,43.541,0,0,1,4.512.24,49.55,49.55,0,0,1,5.04.816,47.061,47.061,0,0,1,6.192,1.824l5.184-11.808a23.59,23.59,0,0,0-6.24-2.928,51.59,51.59,0,0,0-7.68-1.824,46.286,46.286,0,0,0-7.2-.624,40.117,40.117,0,0,0-13.632,2.3,33.683,33.683,0,0,0-11.328,6.72,31.146,31.146,0,0,0-7.68,10.752,35.461,35.461,0,0,0-2.784,14.4q0,10.656,4.272,18.144A28.427,28.427,0,0,0,193.824-2.736a40.32,40.32,0,0,0,18.432,3.984A56.7,56.7,0,0,0,219.84.672,69.755,69.755,0,0,0,228.1-.96a24.286,24.286,0,0,0,6.528-2.592v-34.08h-25.44Z" transform="translate(0.32 291.62)" fill="#fbfffe"/></g></g><g transform="translate(-33 75)"><rect width="184" height="49" transform="translate(207 661)" fill="#612929"/><g transform="matrix(1, 0, 0, 1, 207, 661)" filter="url(#g)"><path d="M12.576,0V-9.5h4.608a19.4,19.4,0,0,0,5.112-.672,13.957,13.957,0,0,0,4.44-2.064,10.119,10.119,0,0,0,3.12-3.552,10.661,10.661,0,0,0,1.152-5.088,11.078,11.078,0,0,0-1.848-6.552,11.252,11.252,0,0,0-4.9-3.912,16.939,16.939,0,0,0-6.7-1.3H3.84V0Zm4.7-25.776a4.786,4.786,0,0,1,2.52.624,4.3,4.3,0,0,1,1.608,1.728,5.421,5.421,0,0,1,.576,2.544,4.454,4.454,0,0,1-.6,2.28,4.436,4.436,0,0,1-1.632,1.632,4.64,4.64,0,0,1-2.376.6h-4.8v-9.408ZM62.016,0V-32.64H53.28v13.008H41.856v-13.3l-8.736.288V0h8.736V-12.768H53.28V0ZM75.744,0V-32.64H67.008V0Zm27.6-6.864H89.472V-32.64H80.736V0H104.16Zm25.056,0H114.528V-32.64h-8.736V0h23.424ZM139.584,0V-32.64h-8.736V0Zm13.728,0V-9.5h4.608a19.4,19.4,0,0,0,5.112-.672,13.957,13.957,0,0,0,4.44-2.064,10.119,10.119,0,0,0,3.12-3.552,10.661,10.661,0,0,0,1.152-5.088,11.078,11.078,0,0,0-1.848-6.552,11.252,11.252,0,0,0-4.9-3.912,16.939,16.939,0,0,0-6.7-1.3H144.576V0Zm4.7-25.776a4.786,4.786,0,0,1,2.52.624,4.3,4.3,0,0,1,1.608,1.728,5.421,5.421,0,0,1,.576,2.544,4.454,4.454,0,0,1-.6,2.28,4.436,4.436,0,0,1-1.632,1.632,4.64,4.64,0,0,1-2.376.6h-4.8v-9.408Z" transform="translate(4.16 40.93)" fill="#fbfffe"/></g></g><g transform="translate(0 4)"><rect width="222" height="49" transform="translate(358 732)" fill="#29613a"/><g transform="matrix(1, 0, 0, 1, 174, 732)" filter="url(#i)"><path d="M26.448-6.864H12.576V-32.64H3.84V0H27.264Zm10.7-25.776H28.416v20.16A13.261,13.261,0,0,0,30.264-5.3,11.626,11.626,0,0,0,35.424-.84,18.2,18.2,0,0,0,43.056.672,18.159,18.159,0,0,0,50.712-.84,11.65,11.65,0,0,0,55.848-5.3,13.261,13.261,0,0,0,57.7-12.48V-32.64H48.96v19.728a7.11,7.11,0,0,1-.768,3.432A5.171,5.171,0,0,1,46.1-7.344a6.264,6.264,0,0,1-3.048.72,6.4,6.4,0,0,1-3.072-.72A4.986,4.986,0,0,1,37.9-9.48a7.3,7.3,0,0,1-.744-3.432Zm49.632,0H58.848v6.864h9.6V0h8.736V-25.776H87.6ZM118.128,0V-32.64h-8.736v13.008H97.968v-13.3l-8.736.288V0h8.736V-12.768h11.424V0Zm28.9,0-.816-6.864H131.856v-6.1H142.7l-.816-6.864H131.856v-5.952h13.728l-.816-6.864H123.12V0Zm15.552-25.776a6.223,6.223,0,0,1,2.52.456A3.462,3.462,0,0,1,166.7-23.9a4.6,4.6,0,0,1,.576,2.4,4.326,4.326,0,0,1-.6,2.256,4.136,4.136,0,0,1-1.632,1.56,4.961,4.961,0,0,1-2.376.552h-4.8v-8.64Zm-13.44-6.864V0h8.736V-10.272h5.808L168.96,0h10.128l-7.2-12.864a10.353,10.353,0,0,0,3.192-3.5A10.251,10.251,0,0,0,176.3-21.5a10.318,10.318,0,0,0-1.848-6.384,10.738,10.738,0,0,0-4.9-3.6,18.8,18.8,0,0,0-6.7-1.152Zm33.552-2.976a4.083,4.083,0,0,0-2.256.648,4.75,4.75,0,0,0-1.584,1.656,4.2,4.2,0,0,0-.576,2.112,4.289,4.289,0,0,0,.264,1.488,4.343,4.343,0,0,0,.744,1.3,4.952,4.952,0,0,0,1.056.96,3.2,3.2,0,0,1-1.008,1.344,9.282,9.282,0,0,1-1.488,1.1l1.728,3.84a13,13,0,0,0,3.816-2.28A11.814,11.814,0,0,0,186.1-26.76a7.7,7.7,0,0,0,1.008-3.72,5.3,5.3,0,0,0-1.3-3.72A4.081,4.081,0,0,0,182.688-35.616Zm4.752,33.6A13.228,13.228,0,0,0,189.72-.96a27.032,27.032,0,0,0,2.784.84,26.908,26.908,0,0,0,2.928.552,20.952,20.952,0,0,0,2.712.192A17.678,17.678,0,0,0,205.1-.624a10.313,10.313,0,0,0,4.488-3.432,8.26,8.26,0,0,0,1.56-4.92,7.37,7.37,0,0,0-.888-3.624,11.91,11.91,0,0,0-2.328-2.952A21.319,21.319,0,0,0,204.744-18q-1.752-1.1-3.48-2.112-1.3-.768-2.424-1.32a9.255,9.255,0,0,1-1.824-1.128,1.63,1.63,0,0,1-.7-1.248,2.032,2.032,0,0,1,.864-1.608,3.645,3.645,0,0,1,2.352-.7,15.528,15.528,0,0,1,2.016.12,17.638,17.638,0,0,1,2.04.408q1.128.288,2.856.912l2.592-5.9a14.88,14.88,0,0,0-4.536-1.992,19.668,19.668,0,0,0-5.064-.7,15.639,15.639,0,0,0-6.432,1.224,9.847,9.847,0,0,0-4.2,3.336,8.5,8.5,0,0,0-1.512,4.8,7.581,7.581,0,0,0,.912,3.72,10.82,10.82,0,0,0,2.4,2.952A24.5,24.5,0,0,0,193.8-14.88q1.7,1.056,3.288,2.016,1.248.72,2.4,1.368a13.916,13.916,0,0,1,1.9,1.248,1.617,1.617,0,0,1,.744,1.176,1.9,1.9,0,0,1-.48,1.176,3.435,3.435,0,0,1-1.416.984,6.159,6.159,0,0,1-2.328.384,12.7,12.7,0,0,1-2.616-.312,20.862,20.862,0,0,1-2.784-.792,15.414,15.414,0,0,1-2.184-.96Z" transform="translate(188.16 40.62)" fill="#fbfffe"/></g></g></g></svg>